<?xml version="1.0" encoding="utf-8"?>
<!-- Generator: Adobe Illustrator 22.1.0, SVG Export Plug-In . SVG Version: 6.00 Build 0)  -->
<svg version="1.1" id="Calque_1" xmlns="http://www.w3.org/2000/svg" xmlns:xlink="http://www.w3.org/1999/xlink" x="0px" y="0px"
	 viewBox="0 0 600 560" style="enable-background:new 0 0 600 560;" xml:space="preserve">
<style type="text/css">
	.st0{fill:#F8A3A6;}
</style>
<title>Fichier 1</title>
<g id="Calque_2_1_">
	<g id="Calque_1-2">
		<path class="st0" d="M173,560c-3.4-0.8-6.8-1.4-10.1-2.4c-33-10-52.1-32.7-58.8-66c-7.2-35.5-1.7-70,10-103.6
			c15.3-43.9,39.7-81.7,77.3-109.8c41.5-31,88.1-42,139.2-33.7c48,7.8,87,31.7,117,69.6c34.2,43.3,52.3,92.8,52.3,148.2
			c0,17.3-2.9,34.2-10.1,50.1c-15.9,34.7-52.2,56.8-96.7,42.1c-16.6-5.5-31.4-14.4-46.3-23.2c-11.3-6.7-22.7-13.2-34.1-19.7
			c-8.4-4.8-16.8-4.7-25.1,0.2c-14.3,8.6-28.6,17.1-42.8,25.8c-15.7,9.5-32,17.8-50.4,21c-2.8,0.5-5.5,1-8.3,1.5L173,560z
			 M292.1,278.9c-32.9-0.9-70.1,16.4-100.2,49.4c-29.7,32.5-47.1,71-52.6,114.8c-2.1,16.8-1.6,33.6,3.7,49.9
			c6,18.5,25.9,36.3,51.2,27c11.5-4.2,22.5-9.9,33.2-15.9c14.1-7.9,27.4-17.1,41.6-24.8c7.7-4,15.9-6.8,24.4-8.3
			c13.7-2.6,26.5,2,38.3,8.4c14,7.6,27.6,16,41.4,24.2c11.5,6.8,23.1,13.3,36.2,16.5c20.1,4.8,38.2-3.7,45.9-22.9
			c3.7-9.1,5.9-18.7,6.6-28.5c2.8-48.2-12.8-90.8-41.6-128.8C391.3,301.7,352.8,280.9,292.1,278.9z"/>
		<path class="st0" d="M212,0c3,0.8,6,1.6,9,2.5c22,6.8,37.2,21.9,48.1,41.2c21.7,38.7,26.9,79.3,11.9,121.6
			c-5.7,16.1-15.6,29.6-30.6,38.3c-21.9,12.7-43.5,10.2-63.9-3.7c-20.8-14.2-33.1-34.8-40.9-58.2c-10.4-31.2-11.8-62.7-0.5-94
			c6.4-17.9,17.2-32.7,34.5-41.6C185.1,3.3,191.2,2,197,0H212z M252.1,120.7c-0.1-18.7-3.6-35.7-11.5-51.6
			c-6.2-12.6-14.1-23.8-27.4-29.9c-7.2-3.2-14-2.3-20.2,2.5c-6.4,4.9-10.4,11.7-12.9,19.2c-8.8,25.6-6.4,50.8,3.4,75.6
			c5.1,12.9,12.2,24.5,23.9,32.5c13.4,9.1,25.2,6.5,34-7.2C249.5,148.9,251.7,134.5,252.1,120.7z"/>
		<path class="st0" d="M403,0c9.7,2.6,18.9,6,26.9,12.3c15.6,12.4,24.6,29,28.7,47.9c9.8,45.3,1.5,87-27.5,123.7
			c-11.6,14.6-26.6,24.8-45.6,27.2c-21.9,2.8-39.4-5.8-53.1-22.5c-13.1-15.8-19-34.6-20.9-54.7c-3.2-35.3,4-68.2,24.3-97.7
			c12.6-18.3,28.8-31.7,51.5-35.5c0.3,0,0.5-0.4,0.8-0.6H403z M425.3,91c-0.4-3.7-0.5-9.2-1.4-14.6c-1.9-11.8-5.5-23-14-32
			c-7-7.4-14.6-8.9-24-4.8c-7.7,3.4-13.5,9.2-18.3,15.8c-15.8,22.1-21.3,47-19.2,73.7c1,13.6,4.7,26.6,13.9,37.2
			c6.8,7.9,16,10.6,25,5.4c6.9-4,13-9.2,17.9-15.4C419.6,137.8,424.6,115.9,425.3,91z"/>
		<path class="st0" d="M600,220c-2.3,9-3.8,18.2-7.1,26.9c-10.7,28-28.7,49.8-56.2,62.7c-16.6,7.8-33.9,10-51.3,2.9
			c-20.5-8.2-31.6-24.4-35.4-45.6c-5.5-31.1,4.6-58.2,23.3-82.5c13.9-18.1,31.6-31.5,54.5-36.4c35.5-7.6,66,13.9,71.2,49.8
			c0.3,1.4,0.6,2.8,1.1,4.2V220z M486,251.1c0,1.2,0,2.3,0,3.5c0.8,20.4,14.2,29.3,33.3,22c25.4-9.7,45.9-44.1,42.8-71.6
			c-2-17.8-13.8-25.2-30.7-19.4C507,194,486.2,224,486,251.1z"/>
		<path class="st0" d="M0,202c2.2-7.5,3.4-15.4,6.6-22.3c13-28.2,42.6-40.3,72.9-29.8c31.8,11.1,52.1,34.2,64.6,64.6
			c7.6,18.4,9.8,37.6,4.9,57.2c-8.3,32.9-38,51-71.1,42.8c-25.4-6.3-43.9-22.2-58.3-43.4C9.3,256.5,2.9,239.6,0.8,221.8
			c-0.2-0.6-0.4-1.2-0.8-1.8V202z M114.4,251.6c-0.3-9.9-2.8-19.6-7.2-28.4c-8.3-17.1-19.9-31.1-38.4-37.9
			c-16.2-5.9-28.7,2-30.7,19.1c-2.2,18.2,4,34.1,14.4,48.6c8.1,11.4,18.2,20.4,31.7,24.7c14.8,4.7,26-1.8,29.1-16.8
			C113.7,257.9,114,254.7,114.4,251.6z"/>
	</g>
</g>
</svg>
