<svg xmlns="http://www.w3.org/2000/svg" viewBox="0 0 600 600"><title>art</title><g id="Calque_2" data-name="Calque 2"><g id="Calque_1-2" data-name="Calque 1"><path d="M319,600H291a36.15,36.15,0,0,0-4.28-1c-31.48-3.36-60.23-14.09-85.7-32.83-41.46-30.5-65.29-71.59-71.76-122.63-2.31-18.22-1.57-36.25,5.24-53.62,9.38-23.86,25.55-41.44,48.79-52.35,11.94-5.61,20.69-13.73,23.23-27.34,2-10.8-3.3-19.59-13.92-22.43A20.76,20.76,0,0,0,167,303.91c-.86,4.55-.63,9.3-1.19,13.92-4.56,38.2-34.56,67.86-73.71,72.94C55.74,395.48,19.3,373.41,5.75,338.1,3.15,331.32,1.88,324,0,317V289c.31-1.76.68-3.52.92-5.29,1.79-13.19,2.65-26.57,5.46-39.53C25.14,157.64,72.32,90.69,147,43.41c34.75-22,72.91-35.31,113.78-40.59C268.19,1.86,275.6.94,283,0h33c2.29.32,4.57.76,6.88.94a282,282,0,0,1,71.69,14.61c64,22.32,115.42,61.3,153.65,117.33a291.18,291.18,0,0,1,48.9,127.4c1,7.9,1.92,15.81,2.88,23.72v32c-1.08,9.4-1.82,18.86-3.3,28.19C584.38,421.72,547.76,485.4,486.65,534.6a290.08,290.08,0,0,1-140.5,61.74C337.12,597.72,328.05,598.79,319,600ZM306,54.46c-35.53.37-62.8,5.31-87.68,15.09C147.15,97.52,98.43,147.71,71,218.76c-11,28.42-15.85,58.06-15.82,88.48,0,16.7,12.23,29,28.86,29.57,14.52.49,27-11.55,28.33-27.34.43-5,.7-10,1.52-14.89,7-41.57,49.09-69.53,90.47-60.18,48.54,11,64.67,57.92,55,93.28C251.7,355.51,234.39,375,208,386.42c-13.75,6-22.57,16.17-24.54,31a83.67,83.67,0,0,0,.69,24.36c7.48,45.26,32.37,77.2,74.67,95.19,23.65,10,48.34,9.86,73.21,6.24C404,532.71,461.12,497.71,502.35,438,541.29,381.67,553.67,319,540.46,252c-11.64-59.07-42.13-107.38-89.31-144.85C407.36,72.33,357.15,55.37,306,54.46Z"/><path d="M479.16,420.35c-.22,35.32-29.63,64.58-64.78,64.46-35.5-.11-64.72-29.62-64.52-65.16.2-35.29,29.6-64.55,64.78-64.46C450.09,355.27,479.39,384.87,479.16,420.35Zm-40.91-.49c-.09-13.17-11.1-23.79-24.55-23.68-12.19.1-22.91,11.19-22.92,23.71,0,13.21,10.76,23.81,24.3,23.93C427.39,443.93,438.33,432.61,438.25,419.86Z"/><path d="M397.49,292.44a61.31,61.31,0,1,1,61.23,61.37A61.39,61.39,0,0,1,397.49,292.44Zm81.67.15c0-11.53-8.68-20.57-19.85-20.58-11.94,0-21.09,9-21,20.65.13,11.14,8.91,20.18,19.75,20.33C470.16,313.16,479.13,304.47,479.16,292.59Z"/><path d="M405.24,114.56a58,58,0,0,1,57.7,58.06c-.11,32.16-26.49,58.26-58.42,57.82s-57.68-26.66-57.5-58.39A57.93,57.93,0,0,1,405.24,114.56Zm-.29,41A17.1,17.1,0,0,0,388,172.86,17,17,0,1,0,405,155.6Z"/><path d="M238,126c0-29.78,24.41-54.43,53.82-54.42,30.56,0,55.29,24.56,55.2,54.79-.1,29.84-24.67,54.4-54.46,54.43A54.72,54.72,0,0,1,238,126Zm68,.29a13.33,13.33,0,0,0-13-13.65,13.57,13.57,0,1,0,13,13.65Z"/></g></g></svg>