<?xml version="1.0" encoding="utf-8"?>
<!-- Generator: Adobe Illustrator 22.1.0, SVG Export Plug-In . SVG Version: 6.00 Build 0)  -->
<svg version="1.1" id="Calque_1" xmlns="http://www.w3.org/2000/svg" xmlns:xlink="http://www.w3.org/1999/xlink" x="0px" y="0px"
	 viewBox="0 0 600 600" style="enable-background:new 0 0 600 600;" xml:space="preserve">
<style type="text/css">
	.st0{fill:#87659F;}
</style>
<title>art</title>
<g id="Calque_2_1_">
	<g id="Calque_1-2">
		<path class="st0" d="M319,600h-28c-1.4-0.4-2.8-0.8-4.3-1c-31.5-3.4-60.2-14.1-85.7-32.8c-41.5-30.5-65.3-71.6-71.8-122.6
			c-2.3-18.2-1.6-36.2,5.2-53.6c9.4-23.9,25.6-41.4,48.8-52.4c11.9-5.6,20.7-13.7,23.2-27.3c2-10.8-3.3-19.6-13.9-22.4
			c-11.1-2.9-22.4,3.8-25.3,14.9c-0.1,0.4-0.2,0.8-0.3,1.2c-0.9,4.5-0.6,9.3-1.2,13.9c-4.6,38.2-34.6,67.9-73.7,72.9
			c-36.4,4.7-72.8-17.4-86.3-52.7C3.2,331.3,1.9,324,0,317v-28c0.3-1.8,0.7-3.5,0.9-5.3c1.8-13.2,2.7-26.6,5.5-39.5
			C25.1,157.6,72.3,90.7,147,43.4c34.8-22,72.9-35.3,113.8-40.6c7.4-1,14.8-1.9,22.2-2.8h33c2.3,0.3,4.6,0.8,6.9,0.9
			c24.4,1.7,48.5,6.6,71.7,14.6c64,22.3,115.4,61.3,153.6,117.3c26.2,38,42.9,81.7,48.9,127.4c1,7.9,1.9,15.8,2.9,23.7v32
			c-1.1,9.4-1.8,18.9-3.3,28.2c-12.3,77.5-48.9,141.2-110.1,190.4c-40.4,32.8-89,54.1-140.5,61.7C337.1,597.7,328,598.8,319,600z
			 M306,54.5c-35.5,0.4-62.8,5.3-87.7,15.1C147.1,97.5,98.4,147.7,71,218.8c-11,28.4-15.8,58.1-15.8,88.5c0,16.7,12.2,29,28.9,29.6
			c14.5,0.5,27-11.5,28.3-27.3c0.4-5,0.7-10,1.5-14.9c7-41.6,49.1-69.5,90.5-60.2c48.5,11,64.7,57.9,55,93.3
			c-7.7,27.8-25,47.3-51.4,58.7c-13.8,6-22.6,16.2-24.5,31c-1,8.1-0.7,16.3,0.7,24.4c7.5,45.3,32.4,77.2,74.7,95.2
			c23.6,10,48.3,9.9,73.2,6.2c72-10.5,129.1-45.5,170.3-105.2c38.9-56.3,51.3-119,38.1-186c-11.6-59.1-42.1-107.4-89.3-144.9
			C407.4,72.3,357.1,55.4,306,54.5z"/>
		<path class="st0" d="M479.2,420.4c-0.2,35.3-29.6,64.6-64.8,64.5c-35.5-0.1-64.7-29.6-64.5-65.2c0.2-35.3,29.6-64.6,64.8-64.5
			C450.1,355.3,479.4,384.9,479.2,420.4z M438.2,419.9c-0.1-13.2-11.1-23.8-24.5-23.7c-12.2,0.1-22.9,11.2-22.9,23.7
			c0,13.2,10.8,23.8,24.3,23.9C427.4,443.9,438.3,432.6,438.2,419.9L438.2,419.9z"/>
		<path class="st0" d="M397.5,292.4c0-33.9,27.5-61.3,61.4-61.2s61.3,27.5,61.2,61.4s-27.5,61.3-61.4,61.2c0,0,0,0,0,0
			C424.9,353.7,397.5,326.3,397.5,292.4z M479.2,292.6c0-11.5-8.7-20.6-19.9-20.6c-11.9,0-21.1,9-21,20.6
			c0.1,11.1,8.9,20.2,19.8,20.3C470.2,313.2,479.1,304.5,479.2,292.6L479.2,292.6z"/>
		<path class="st0" d="M405.2,114.6c31.9,0.2,57.7,26.1,57.7,58.1c-0.1,32.2-26.5,58.3-58.4,57.8s-57.7-26.7-57.5-58.4
			C347.3,140.1,373.3,114.4,405.2,114.6z M404.9,155.6c-9.4,0.1-17,7.8-17,17.2c0,0,0,0,0,0.1c0.1,9.4,7.9,16.9,17.3,16.7
			c9.4-0.1,16.9-7.9,16.7-17.3C421.9,163.1,414.3,155.6,404.9,155.6L404.9,155.6z"/>
		<path class="st0" d="M238,126c0-29.8,24.4-54.4,53.8-54.4c30.6,0,55.3,24.6,55.2,54.8c-0.1,29.8-24.7,54.4-54.5,54.4
			C262.4,180.7,238,156.2,238,126z M306,126.3c0.2-7.4-5.6-13.5-13-13.7c-7.5-0.3-13.8,5.5-14.1,13c-0.3,7.5,5.5,13.8,13,14.1
			s13.8-5.5,14.1-13C306,126.6,306,126.4,306,126.3z"/>
	</g>
</g>
</svg>
