<svg xmlns="http://www.w3.org/2000/svg" viewBox="0 0 600 600"><defs><style>.cls-1{fill:#565656;}</style></defs><title>close</title><g id="Calque_2" data-name="Calque 2"><g id="Calque_1-2" data-name="Calque 1"><path class="cls-1" d="M19,0c4.05,3.35,8.41,6.39,12.11,10.09Q164.07,143,296.91,276a39,39,0,0,1,2.57,3.25c1.83-1.74,3.24-3,4.59-4.38Q436.81,142.08,569.57,9.35C573,5.89,577.17,3.1,581,0h7c5.83,2.17,9.47,6.53,12,12v7c-3.52,4.12-6.79,8.5-10.6,12.32Q457.13,163.8,324.77,296.17c-1.16,1.16-2.26,2.37-3.65,3.84,1.49,1.56,2.81,3,4.19,4.39Q458.6,437.6,591.85,570.86c3.22,3.21,5.46,7.4,8.15,11.14v6a21.69,21.69,0,0,1-12,12h-7c-4.84-4.21-10-8.16-14.48-12.68Q435.29,456.34,304.2,325.2a34.55,34.55,0,0,1-3.36-4.8c-2.34,2.18-3.68,3.35-4.93,4.61Q162.82,458,29.68,591c-3.45,3.44-7.77,6-11.68,9H12A20.65,20.65,0,0,1,0,588v-7c3-3.72,5.65-7.75,9-11.1q132.48-132.58,265.12-265c1.5-1.51,3.53-2.48,5.32-3.7,0-.82.07-1.65.1-2.48-1.69-1.07-3.65-1.87-5-3.25Q141.61,162.6,8.83,29.61C5.6,26.37,2.93,22.55,0,19V12A20.54,20.54,0,0,1,12,0Z"/></g></g></svg>