<svg width="70" height="70" viewBox="0 0 70 70" fill="none" xmlns="http://www.w3.org/2000/svg">
<rect width="70" height="70" rx="35" fill="#5FBB92"/>
<path d="M18.7144 11.1903C18.2054 11.7697 17.5193 12.103 16.829 12.103C16.2217 12.103 15.659 11.8456 15.2455 11.3788L8.99496 4.25515L8.4289 4.89955L10.5881 7.35851L3.58981 15.3296C3.38335 15.5651 3.21781 15.837 3.09381 16.1372C2.90006 16.6043 2.82039 17.1188 2.85852 17.6297C1.01092 15.5037 -0.00309291 12.8054 7.0869e-06 10.0279C0.00310709 7.37334 0.931557 4.86 2.61393 2.95505C4.29536 1.05046 6.52736 0 8.89948 0C10.3016 0 11.6371 0.358745 12.8709 1.06105C13.3731 1.34353 13.8626 1.69133 14.3239 2.10021L14.5433 2.29583L18.883 7.23563C19.7892 8.27514 19.716 10.0491 18.7144 11.1903Z" transform="translate(19 20)" fill="white"/>
<path d="M10.1351 2.99813L3.13751 10.9693C2.81015 11.3386 2.36778 11.5452 1.90092 11.5452C1.40151 11.5452 0.92473 11.3171 0.56234 10.9043C0.19995 10.4919 6.14929e-08 9.95234 6.14929e-08 9.37962C6.14929e-08 8.84398 0.17732 8.34399 0.5053 7.97113L7.50293 -1.45471e-07L10.1351 2.99813Z" transform="translate(22.6478 28.0001)" fill="white"/>
<path d="M24.0315 10.0276C24.0343 12.8234 23.0076 15.5358 21.138 17.6689C20.0254 18.9326 18.7439 20.3923 17.4338 21.8845L9.87322 30.4238C9.54586 30.7966 9.1069 30.9996 8.63632 30.9996C8.13381 30.9996 7.65703 30.7715 7.29774 30.3584C6.94496 29.9563 6.7478 29.428 6.73819 28.8701C6.72858 28.3235 6.90652 27.8091 7.2407 27.4249L14.5911 19.0488L13.9051 18.2663L6.55405 26.6435C6.22638 27.0128 5.78463 27.2187 5.31715 27.2187C4.81805 27.2187 4.34127 26.9906 3.97826 26.5785C3.61618 26.1654 3.41592 25.6259 3.41592 25.0539C3.41592 24.5175 3.59386 24.0175 3.92122 23.6447L11.2719 15.2678L10.4904 14.3773L3.13568 22.7499C2.80833 23.1232 2.36936 23.3258 1.89909 23.3258C1.3969 23.3258 0.919495 23.0977 0.560205 22.6857C0.207425 22.2831 0.010266 21.7546 0.000655975 21.197C-0.012364 20.6504 0.168986 20.1356 0.502855 19.7514L7.50079 11.781L7.71376 12.0236C8.27982 12.6648 9.04273 13.0162 9.85989 13.0162C10.7536 13.0162 11.6474 12.585 12.3117 11.8358C13.6217 10.3362 13.6977 7.98596 12.4769 6.59547L9.06877 2.71248C10.7217 0.960066 12.8644 0 15.1321 0C17.5005 0 19.7328 1.05046 21.4176 2.95541C23.1 4.85965 24.0287 7.37298 24.0315 10.0276Z" transform="translate(25.9684 20.0004)" fill="white"/>
</svg>
