<?xml version="1.0" encoding="utf-8"?>
<!-- Generator: Adobe Illustrator 22.1.0, SVG Export Plug-In . SVG Version: 6.00 Build 0)  -->
<svg version="1.1" id="Calque_1" xmlns="http://www.w3.org/2000/svg" xmlns:xlink="http://www.w3.org/1999/xlink" x="0px" y="0px"
	 viewBox="0 0 600 332.2" style="enable-background:new 0 0 600 332.2;" xml:space="preserve">
<style type="text/css">
	.st0{fill:#FFE464;}
</style>
<title>education</title>
<g id="Calque_2_1_">
	<g id="Calque_1-2">
		<path class="st0" d="M0,125v-7c2.2-5,6-7.9,11.2-9.8c84.2-31.7,168.4-63.5,252.5-95.4C274.5,8.7,285.2,4.3,296,0h8
			c1.2,0.7,2.5,1.4,3.9,2c93.3,35.3,186.7,70.6,280,105.9c5.5,2.1,9.6,5,12.2,10.1v7c-2.9,5.7-7.9,8.4-13.7,10.4
			c-9,3.1-17.7,6.7-26.7,9.9c-3.1,1.1-4.4,2.5-4.3,6c0.2,20.2,0,40.3,0.2,60.5c0.1,2.3,0.8,4.4,2.2,6.2c6.3,8.5,5.5,19-2.3,26.1
			c-6.9,6.4-18.3,6.3-25.5-0.2s-8.1-17.6-2.2-25.9c1.4-2,2.2-4.3,2.2-6.7c0.2-16.7,0.1-33.3,0.1-50c0-1.4-0.2-2.9-0.3-4.7
			c-1.3,0.4-2.2,0.6-3.1,1c-12,4.5-23.9,9.2-36,13.5c-4,1.4-4.8,3.4-4.5,7.2c1.8,23.6,2.9,47.2,5.3,70.8
			c1.4,14.4-3.8,25.3-14.3,34.3c-4.4,3.8-9.1,7.3-14,10.3c-28.5,17.3-60,26.1-92.4,32.1c-47,8.6-94.1,8-141.1-0.2
			c-28.5-4.9-56.1-12.9-82.1-25.8c-11.3-5.6-21.6-12.6-30-22.1c-6.6-7.2-9.8-16.9-8.8-26.6c2-24.2,3.4-48.5,5.4-72.7
			c0.3-4.3-1.1-6-5-7.4c-32.1-11.9-64.1-24.1-96.2-36C7.3,133.1,2.7,130.3,0,125z M551,121.4c-2.3-1-3.7-1.7-5-2.2
			c-80.5-30.3-160.9-60.7-241.4-91c-3.6-1.4-6.6-1-10,0.3c-78.5,29.6-156.9,59.2-235.4,88.7c-3.2,1.2-6.4,2.5-10.4,4.1
			c2.1,0.8,3.3,1.3,4.5,1.8c80.9,30.6,161.8,61.1,242.8,91.6c2.8,0.8,5.7,0.7,8.4-0.3c45.6-17.1,91.2-34.2,136.8-51.5
			C477.6,149.2,513.9,135.4,551,121.4z M139.3,182.9c-0.1,1.7-0.3,2.8-0.4,4c-1.5,20.9-2.8,41.9-4.7,62.8c-0.6,6.4,1.2,11,5.7,15
			c9.2,8.2,20,13.8,31.2,18.5c32.9,13.7,67.5,20.5,102.8,22.7c50.4,3.1,99.8-2.1,147.3-20c12.2-4.6,23.6-11.5,34.8-18.1
			c7.2-4.2,11.8-10.7,9.2-20.1c-0.5-1.9-0.3-4-0.4-6c-1.4-19.4-2.8-38.8-4.2-58.7c-1.9,0.6-3.4,1.1-5,1.7
			c-49.3,18.6-98.6,37.2-147.9,55.9c-5.1,2.1-10.8,2.1-15.9,0c-40.6-15.4-81.1-30.8-121.8-46C160.1,190.6,149.8,186.8,139.3,182.9z"
			/>
	</g>
</g>
</svg>
