<svg xmlns="http://www.w3.org/2000/svg" viewBox="0 0 600 332.17"><title>education</title><g id="Calque_2" data-name="Calque 2"><g id="Calque_1-2" data-name="Calque 1"><path d="M0,125v-7c2.25-5,6-7.86,11.18-9.8q126.3-47.58,252.48-95.42C274.5,8.67,285.22,4.27,296,0h8a37,37,0,0,0,3.87,2q140,53,280,105.89c5.47,2.06,9.62,5,12.18,10.14v7c-2.9,5.69-7.89,8.45-13.73,10.45-9,3.06-17.73,6.71-26.66,9.88-3.08,1.09-4.39,2.5-4.35,6,.2,20.16,0,40.32.19,60.47a11.43,11.43,0,0,0,2.16,6.25c6.26,8.52,5.46,19-2.29,26.15-6.87,6.39-18.31,6.3-25.54-.18s-8.1-17.59-2.2-25.85a12.56,12.56,0,0,0,2.25-6.7c.18-16.66.1-33.32.09-50,0-1.43-.16-2.85-.27-4.66-1.31.4-2.25.64-3.14,1-12,4.52-23.89,9.25-36,13.47-4,1.38-4.82,3.36-4.51,7.24,1.82,23.58,2.93,47.22,5.28,70.75,1.44,14.45-3.83,25.33-14.31,34.29a108.84,108.84,0,0,1-14.05,10.32C434.49,311.22,403,320,370.62,326c-47,8.61-94.13,8-141.14-.17-28.46-4.93-56.07-12.89-82.07-25.75-11.27-5.58-21.58-12.58-30-22.08a34,34,0,0,1-8.82-26.62c2-24.22,3.45-48.5,5.38-72.74.34-4.29-1.1-6-5-7.44-32.11-11.92-64.11-24.15-96.23-36C7.26,133.07,2.74,130.31,0,125Zm551.05-3.63c-2.33-1-3.65-1.67-5-2.19q-120.69-45.5-241.37-91c-3.6-1.36-6.59-1-10,.32Q177,72.89,59.31,117.17c-3.22,1.22-6.41,2.51-10.42,4.08,2.11.85,3.3,1.35,4.5,1.8q121.35,45.88,242.76,91.63a13.12,13.12,0,0,0,8.43-.29q68.46-25.6,136.81-51.53C477.64,149.16,513.88,135.44,551.05,121.37ZM139.3,182.85c-.15,1.68-.28,2.82-.36,4-1.52,20.92-2.77,41.87-4.7,62.76-.59,6.37,1.17,11,5.72,15,9.22,8.17,20,13.77,31.21,18.45,32.92,13.69,67.47,20.51,102.84,22.71,50.36,3.13,99.84-2.11,147.33-20,12.17-4.58,23.56-11.46,34.84-18.09,7.21-4.25,11.82-10.72,9.22-20.07-.52-1.88-.27-4-.41-6-1.38-19.41-2.76-38.82-4.17-58.67-1.88.65-3.43,1.15-5,1.72q-74,27.9-147.9,55.89a21.09,21.09,0,0,1-15.92,0q-60.84-23.13-121.76-46C160.05,190.63,149.81,186.8,139.3,182.85Z"/></g></g></svg>