<svg xmlns="http://www.w3.org/2000/svg" viewBox="0 0 600 600"><title>env</title><g id="Calque_2" data-name="Calque 2"><g id="Calque_1-2" data-name="Calque 1"><path d="M0,396V359c.3-1.6.62-3.19.91-4.79,2.84-16,4.24-32.48,8.77-48,24.76-84.8,76.44-149.33,151-195.73,39.19-24.39,81.86-41.4,125.66-55.5A1087,1087,0,0,1,473,12.91c34.11-4.64,68.43-7.8,102.66-11.6C580.42.78,585.22.43,590,0h10V7c-.29,1.94-.71,3.87-.86,5.81-1.15,14.78-1.94,29.6-3.42,44.34A1380,1380,0,0,1,572,210.06c-12.19,56.7-27.94,112.32-50.85,165.75-25.34,59.13-59.25,112-110.17,152.75-42.73,34.21-89.83,58.76-144.34,67.63-9.17,1.49-18.4,2.55-27.6,3.81H207c-1.45-.28-2.89-.64-4.36-.82-11.54-1.41-23.17-2.3-34.62-4.25a309.49,309.49,0,0,1-107.8-40.08c-4.58-2.74-9.51-6.12-12.28-10.48C25.11,508.38,10.89,469,4,427,2.33,416.75,1.32,406.35,0,396ZM148.26,161c-1.79,1.34-2.46,1.82-3.1,2.34a328.58,328.58,0,0,0-74.88,87C48.45,287,35.39,326.45,33.73,369.28c-1.57,40.38,6,79.14,21.8,116.29C58.8,493.27,62.62,500.73,67,510c1.93-2.73,2.81-4.41,4.08-5.69q36.69-36.81,73.53-73.47a11.73,11.73,0,0,0,3.71-9.18q-.15-127.17-.07-254.36ZM305.14,85.91a32.56,32.56,0,0,0-3.78.72c-39.71,12.65-78.42,27.64-114.64,48.54-2.76,1.6-3.89,3.26-3.88,6.58q.15,122.7.09,245.41c0,1.36.21,2.73.44,5.61,2.33-2.67,3.65-4.38,5.17-5.9q56.55-56.55,113.18-113a11.15,11.15,0,0,0,3.48-8.75q-.13-86.71-.06-173.43ZM514.32,295.1c-1.92-.11-3.23-.25-4.55-.25q-88.24,0-176.48.12a10.79,10.79,0,0,0-6.76,3.06q-57.79,57.45-115.37,115.13c-1,1-1.91,2.06-3.54,3.84h4.83q122.74,0,245.48.07c3.23,0,5-.9,6.62-3.8,18-31.65,32-65.06,43.64-99.48C510.26,307.7,512.21,301.56,514.32,295.1ZM91.3,533.3c2,1.1,3.44,2,4.92,2.69,32,16.06,65.65,26.45,101.49,29.3A248.66,248.66,0,0,0,314,547.17c43.73-18.08,80.27-46.29,112.49-80.48,4.16-4.42,7.82-9.32,12.39-14.81-2.75-.18-4.33-.36-5.9-.36q-127.74,0-255.47-.08a10.68,10.68,0,0,0-8.29,3.48q-37.15,37.43-74.52,74.66C93.7,530.61,92.75,531.73,91.3,533.3ZM339.8,233.89l194.26-194c-4.3.45-8.69.84-13.06,1.39C461.65,48.72,402.82,59,344.88,74c-3.94,1-5.2,2.49-5.19,6.65.17,49.83.11,99.67.11,149.5ZM560.1,65.42,366,259.79a1.88,1.88,0,0,0,.8.18q77.24,0,154.48.1c2.93,0,3.57-1.38,4.12-3.72,2.8-11.82,5.84-23.58,8.59-35.4,9.8-42.19,17-84.85,22.76-127.76C558,84,559,74.81,560.1,65.42Z"/></g></g></svg>