<?xml version="1.0" encoding="utf-8"?>
<!-- Generator: Adobe Illustrator 22.1.0, SVG Export Plug-In . SVG Version: 6.00 Build 0)  -->
<svg version="1.1" id="Calque_1" xmlns="http://www.w3.org/2000/svg" xmlns:xlink="http://www.w3.org/1999/xlink" x="0px" y="0px"
	 viewBox="0 0 600 600" style="enable-background:new 0 0 600 600;" xml:space="preserve">
<style type="text/css">
	.st0{fill:#5FBB92;}
</style>
<title>env</title>
<g id="Calque_2_1_">
	<g id="Calque_1-2">
		<path class="st0" d="M0,396v-37c0.3-1.6,0.6-3.2,0.9-4.8c2.8-16,4.2-32.5,8.8-48c24.8-84.8,76.4-149.3,151-195.7
			c39.2-24.4,81.9-41.4,125.7-55.5C347.2,35.5,409.7,21.4,473,12.9c34.1-4.6,68.4-7.8,102.7-11.6c4.8-0.5,9.6-0.9,14.3-1.3h10v7
			c-0.3,1.9-0.7,3.9-0.9,5.8c-1.2,14.8-1.9,29.6-3.4,44.3c-5,51.4-13,102.4-23.7,152.9c-12.2,56.7-27.9,112.3-50.8,165.8
			c-25.3,59.1-59.2,112-110.2,152.8c-42.7,34.2-89.8,58.8-144.3,67.6c-9.2,1.5-18.4,2.5-27.6,3.8h-32c-1.4-0.3-2.9-0.6-4.4-0.8
			c-11.5-1.4-23.2-2.3-34.6-4.2c-38.1-6.5-74.7-20.1-107.8-40.1c-4.6-2.7-9.5-6.1-12.3-10.5C25.1,508.4,10.9,469,4,427
			C2.3,416.8,1.3,406.4,0,396z M148.3,161c-1.8,1.3-2.5,1.8-3.1,2.3c-29.9,24.4-55.2,53.8-74.9,87C48.5,287,35.4,326.5,33.7,369.3
			c-1.6,40.4,6,79.1,21.8,116.3c3.3,7.7,7.1,15.2,11.5,24.4c1.9-2.7,2.8-4.4,4.1-5.7c24.5-24.5,49-49,73.5-73.5
			c2.5-2.4,3.9-5.7,3.7-9.2c-0.1-84.8-0.1-169.6-0.1-254.4L148.3,161z M305.1,85.9c-1.3,0.2-2.5,0.4-3.8,0.7
			c-39.7,12.7-78.4,27.6-114.6,48.5c-2.8,1.6-3.9,3.3-3.9,6.6c0.1,81.8,0.1,163.6,0.1,245.4c0,1.4,0.2,2.7,0.4,5.6
			c2.3-2.7,3.6-4.4,5.2-5.9c37.7-37.7,75.4-75.4,113.2-113c2.4-2.3,3.7-5.5,3.5-8.8c-0.1-57.8-0.1-115.6-0.1-173.4V85.9z
			 M514.3,295.1c-1.9-0.1-3.2-0.2-4.5-0.2c-58.8,0-117.7,0-176.5,0.1c-2.5,0.2-4.9,1.3-6.8,3.1c-38.5,38.3-77,76.7-115.4,115.1
			c-1,1-1.9,2.1-3.5,3.8h4.8c81.8,0,163.7,0,245.5,0.1c3.2,0,5-0.9,6.6-3.8c18-31.6,32-65.1,43.6-99.5
			C510.3,307.7,512.2,301.6,514.3,295.1z M91.3,533.3c2,1.1,3.4,2,4.9,2.7c32,16.1,65.6,26.5,101.5,29.3
			c39.7,3.4,79.5-2.9,116.3-18.1c43.7-18.1,80.3-46.3,112.5-80.5c4.2-4.4,7.8-9.3,12.4-14.8c-2.8-0.2-4.3-0.4-5.9-0.4
			c-85.2,0-170.3,0-255.5-0.1c-3.1-0.1-6.2,1.2-8.3,3.5c-24.8,25-49.6,49.8-74.5,74.7C93.7,530.6,92.8,531.7,91.3,533.3z
			 M339.8,233.9l194.3-194c-4.3,0.5-8.7,0.8-13.1,1.4C461.6,48.7,402.8,59,344.9,74c-3.9,1-5.2,2.5-5.2,6.7
			c0.2,49.8,0.1,99.7,0.1,149.5V233.9z M560.1,65.4L366,259.8c0.3,0.1,0.5,0.2,0.8,0.2c51.5,0,103,0,154.5,0.1
			c2.9,0,3.6-1.4,4.1-3.7c2.8-11.8,5.8-23.6,8.6-35.4c9.8-42.2,17-84.9,22.8-127.8C558,84,559,74.8,560.1,65.4z"/>
	</g>
</g>
</svg>
