<svg xmlns="http://www.w3.org/2000/svg" viewBox="0 0 547.19 365.25"><title>Fichier 1</title><g id="Calque_2" data-name="Calque 2"><g id="Calque_1-2" data-name="Calque 1"><path d="M0,59.82c4.13-6,9.89-7.93,17.11-7.93q171,.2,342,.09h6.45c1.53-4.36,2.69-8.53,4.4-12.45C381,14.13,406.08-1.55,432.66.12c28.67,1.8,51.89,20,59.75,47.3,1,3.59,2.41,4.72,6,4.65,11.66-.22,23.33-.15,35,0,5.58,0,10.08,2.34,12.44,7.65a12.7,12.7,0,0,1-1.59,13.65c-3,4-7.25,5-11.94,5-11.34,0-22.67.1-34-.07-3.35-.05-4.82.85-5.82,4.34-8.14,28.66-33.71,48.08-62.79,48-29.33,0-54.65-19.57-62.84-48.58-.74-2.63-1.77-4.13-4.73-3.75a35.37,35.37,0,0,1-4.49,0q-170,0-340,.09C10.46,78.42,4.3,77.1,0,70.82Zm430.11,44.44c23.09-1.13,39.74-18.67,38.8-40.87-.89-21-19.83-38.49-40.5-37.3-22.64,1.3-38.58,19.16-37.52,42C391.84,88.32,410.19,105.23,430.11,104.26Z"/><path d="M0,294.82c3.74-5.85,9-8,16-7.95,49.66.21,99.32.06,149,.22,4.06,0,5.61-1.15,6.75-5.08A64.95,64.95,0,0,1,297,283.14C298,287,300.07,287,303,287q113.23,0,226.47,0a34.33,34.33,0,0,1,7.92.66c6.42,1.53,10.21,7.22,9.6,13.86a12.74,12.74,0,0,1-12,11.37c-2,.14-4,.08-6,.08H298.31l-1.54,5.29a65.46,65.46,0,0,1-62.59,47c-29.08,0-55-19.37-62.63-47.41-1.16-4.22-3-4.94-6.82-4.93-49.66.12-99.32,0-149,.17-7,0-12.35-2-15.76-8.26Zm273.17,5.32a39.07,39.07,0,1,0-78.13-.29c-.09,21,17.12,39,37.41,39.13C255.51,339.11,273.09,322.35,273.17,300.14Z"/></g></g></svg>