<?xml version="1.0" encoding="utf-8"?>
<!-- Generator: Adobe Illustrator 22.1.0, SVG Export Plug-In . SVG Version: 6.00 Build 0)  -->
<svg version="1.1" id="Calque_1" xmlns="http://www.w3.org/2000/svg" xmlns:xlink="http://www.w3.org/1999/xlink" x="0px" y="0px"
	 viewBox="0 0 547.2 365.2" style="enable-background:new 0 0 547.2 365.2;" xml:space="preserve">
<style type="text/css">
	.st0{fill:#565656;}
</style>
<title>Fichier 1</title>
<g id="Calque_2_1_">
	<g id="Calque_1-2">
		<path class="st0" d="M0,59.8c4.1-6,9.9-7.9,17.1-7.9c114,0.1,228,0.2,342,0.1h6.5c1.5-4.4,2.7-8.5,4.4-12.5
			c11-25.4,36.1-41.1,62.7-39.4c28.7,1.8,51.9,20,59.8,47.3c1,3.6,2.4,4.7,6,4.7c11.7-0.2,23.3-0.2,35,0c5.6,0,10.1,2.3,12.4,7.7
			c2.2,4.5,1.6,9.8-1.6,13.7c-3,4-7.2,5-11.9,5c-11.3,0-22.7,0.1-34-0.1c-3.4-0.1-4.8,0.8-5.8,4.3c-8.1,28.7-33.7,48.1-62.8,48
			c-29.3,0-54.6-19.6-62.8-48.6c-0.7-2.6-1.8-4.1-4.7-3.8c-1.5,0.1-3,0.1-4.5,0c-113.3,0-226.7,0-340,0.1c-7.2,0-13.3-1.3-17.6-7.6
			V59.8z M430.1,104.3c23.1-1.1,39.7-18.7,38.8-40.9c-0.9-21-19.8-38.5-40.5-37.3c-22.6,1.3-38.6,19.2-37.5,42
			C391.8,88.3,410.2,105.2,430.1,104.3z"/>
		<path class="st0" d="M0,294.8c3.7-5.9,9-8,16-8c49.7,0.2,99.3,0.1,149,0.2c4.1,0,5.6-1.1,6.8-5.1c9.8-34.5,45.7-54.5,80.2-44.7
			c22,6.3,39.1,23.7,45,45.8c1,3.9,3.1,3.9,6,3.9c75.5,0,151,0,226.5,0c2.7-0.1,5.3,0.1,7.9,0.7c6.4,1.5,10.2,7.2,9.6,13.9
			c-0.7,6.2-5.8,11-12,11.4c-2,0.1-4,0.1-6,0.1H298.3l-1.5,5.3c-8.2,27.8-33.6,46.9-62.6,47c-29.1,0-55-19.4-62.6-47.4
			c-1.2-4.2-3-4.9-6.8-4.9c-49.7,0.1-99.3,0-149,0.2c-7,0-12.4-2-15.8-8.3L0,294.8z M273.2,300.1c0.4-21.6-16.7-39.4-38.3-39.8
			c-21.6-0.4-39.4,16.7-39.8,38.3c0,0.4,0,0.8,0,1.2c-0.1,21,17.1,39,37.4,39.1C255.5,339.1,273.1,322.4,273.2,300.1z"/>
	</g>
</g>
</svg>
