<?xml version="1.0" encoding="utf-8"?>
<!-- Generator: Adobe Illustrator 22.1.0, SVG Export Plug-In . SVG Version: 6.00 Build 0)  -->
<svg version="1.1" id="Calque_1" xmlns="http://www.w3.org/2000/svg" xmlns:xlink="http://www.w3.org/1999/xlink" x="0px" y="0px"
	 viewBox="0 0 600 549" style="enable-background:new 0 0 600 549;" xml:space="preserve">
<style type="text/css">
	.st0{fill:#F15156;}
</style>
<title>health</title>
<g id="Calque_2_1_">
	<g id="Calque_1-2">
		<path class="st0" d="M171,0h22c1.1,0.3,2.2,0.6,3.4,0.8c30.7,2.6,60.2,13.1,85.5,30.7c6.3,4.3,12.2,9.1,18.4,13.7
			c1.3-1,2.5-2,3.6-2.9c21-17.9,46-30.5,72.8-36.9C386.9,3,397.5,1.8,408,0h25c8.2,1.3,16.5,2.1,24.5,4.1
			c73.2,18.1,119.1,64.1,138,137c2.3,8.8,3,18,4.5,26.9v26c-0.4,1.3-0.7,2.5-0.8,3.8c-4,41.2-19.6,77.5-48.7,106.8
			c-78.2,78.9-156.7,157.5-235.5,235.7c-3.4,3.4-7.9,5.7-11.9,8.5h-6c-3.3-2.1-7.1-3.7-9.8-6.4C209.4,465,131.7,387.3,54.1,309.5
			c-25-25.1-42-54.8-49.7-89.5c-2-8.9-3-17.9-4.4-26.9v-26c1.1-7.2,1.9-14.4,3.3-21.6C18.1,71.6,76.1,15.5,150.9,2.8
			C157.6,1.7,164.3,0.9,171,0z M371.1,314c1-3,1.5-4.6,2-6.1c17.1-54.2,34.3-108.5,51.4-162.7c2-6.5,5.4-11,12.2-12.3
			c7.1-1.3,12.1,1.9,16.3,7.3c17.5,22.4,35.2,44.8,53,67.1c1.4,1.7,3.9,3.4,5.9,3.4c16.8,0.3,33.7,0,50.5,0.2c3.3,0,4.4-1.3,4.7-4.2
			c0.7-8.3,2.1-16.6,2.1-24.8c0-51.6-20.7-93.2-62.4-123.3C448.5,16.6,368.8,22.4,317,72c-14.9,14.2-21.3,11.2-33.4,0.1
			C238.4,30.4,186,19.5,128.2,40C46.6,69.1,7.7,164,44.2,242.5c1.3,2.9,3,3.8,6,3.7c15.3-0.1,30.7-0.2,46,0.1
			c4.3,0.1,8.6,1,12.6,2.4c9.3,3.3,18.5,7.2,28,11c1.2-2.3,2.3-4.2,3.3-6.1c20.9-39.6,41.8-79.2,62.7-118.8
			c3.5-6.7,8.4-10.7,16.1-10.6c7,0.1,10.9,4.6,14,10.4c18.7,34.6,37.5,69,56.2,103.6c1.7,3.2,3.7,4.4,7.4,4.3
			c9.8-0.3,19.7,0.1,29.5-0.1c8.9-0.2,14.9,3.4,18.3,11.8c3.1,7.6,6.6,14.9,10,22.3C359.6,288.6,365,300.7,371.1,314z M67.3,277
			l234.2,233.1c-0.3,0.5,0.6-0.2,1.4-1.1c74-74,147.9-148.1,221.8-222.1c6.5-6.7,12.5-13.8,18-21.3c5.5-7.4,10-15.5,15.6-24.4h-6.4
			c-15.5,0-31-0.3-46.5,0.1c-7.5,0.2-12.6-2.6-17-8.3c-12-15.4-24.1-30.6-36.1-45.9c-1.7-2.1-3.4-4.2-5.6-7
			c-6.4,20.4-12.5,39.7-18.6,59c-12.6,40.1-25.2,80.3-37.9,120.4c-1.7,5.4-4.6,9.6-10.1,11.5c-8.4,2.9-15.9-0.8-20.1-10
			c-12.9-27.9-25.7-55.9-38.5-83.9c-1.4-3-2.9-4.2-6.3-4.1c-10.2,0.2-20.3-0.1-30.5,0.1c-7.7,0.1-12.9-3.1-16.5-9.8
			c-7.7-14.4-15.6-28.7-23.4-43c-8.7-15.9-17.4-31.8-26.4-48.2c-1.1,2.1-2.1,3.6-2.9,5.2l-56.5,106.9c-5.4,10.3-12.4,12.9-23.1,8.6
			c-11.6-4.7-23.1-9.5-34.7-14.1c-1.6-0.8-3.4-1.3-5.2-1.5C86.6,276.9,77.1,277,67.3,277z"/>
	</g>
</g>
</svg>
