<svg xmlns="http://www.w3.org/2000/svg" viewBox="0 0 600 549"><title>health</title><g id="Calque_2" data-name="Calque 2"><g id="Calque_1-2" data-name="Calque 1"><path d="M171,0h22a23.53,23.53,0,0,0,3.35.78,175.62,175.62,0,0,1,85.47,30.66c6.26,4.32,12.19,9.11,18.35,13.73,1.31-1.05,2.49-2,3.63-2.91A174.76,174.76,0,0,1,376.6,5.39C386.91,3,397.52,1.76,408,0h25c8.18,1.34,16.49,2.12,24.51,4.1,73.23,18.14,119.09,64.09,138,137,2.28,8.78,3,18,4.47,26.95v26a30.31,30.31,0,0,0-.85,3.84c-4,41.22-19.59,77.46-48.7,106.85Q433.19,423.07,314.93,540.46c-3.41,3.41-7.93,5.72-11.93,8.54h-6c-3.3-2.12-7.1-3.72-9.81-6.42Q170.51,426.15,54.06,309.48c-25-25.07-41.95-54.84-49.65-89.54C2.44,211.07,1.44,202,0,193V167c1.1-7.2,1.92-14.45,3.35-21.59C18.06,71.6,76.13,15.51,150.89,2.84,157.56,1.7,164.3.94,171,0ZM371.12,314.05c1-3,1.5-4.57,2-6.14q25.72-81.36,51.37-162.74c2-6.46,5.4-11,12.23-12.3,7.06-1.32,12.09,1.86,16.33,7.27Q479.36,173.8,506,207.25c1.35,1.69,3.9,3.39,5.92,3.43,16.83.27,33.66,0,50.49.23,3.35,0,4.43-1.26,4.67-4.24.67-8.28,2.07-16.56,2.07-24.84,0-51.56-20.7-93.24-62.4-123.31C448.55,16.58,368.84,22.43,317,72c-14.88,14.24-21.28,11.24-33.35.12C238.41,30.41,186,19.48,128.17,40.05,46.56,69.06,7.67,164,44.2,242.49c1.35,2.89,3,3.77,6,3.74,15.33-.15,30.67-.24,46,.05a40.31,40.31,0,0,1,12.59,2.45c9.34,3.34,18.49,7.21,28,11,1.23-2.29,2.26-4.17,3.26-6.07q31.38-59.37,62.69-118.76c3.52-6.7,8.44-10.73,16.06-10.61,7,.1,10.89,4.65,14,10.42,18.68,34.55,37.52,69,56.17,103.58,1.74,3.21,3.7,4.44,7.37,4.34,9.82-.26,19.66.07,29.49-.13,8.86-.18,14.88,3.39,18.27,11.77,3.06,7.56,6.63,14.9,10,22.32C359.57,288.61,365.05,300.68,371.12,314.05ZM67.31,277,301.5,510.13c-.28.53.58-.25,1.4-1.07Q413.83,398,524.68,286.91a187.41,187.41,0,0,0,18-21.33c5.45-7.41,9.95-15.51,15.57-24.41h-6.42c-15.5,0-31-.31-46.48.13-7.49.21-12.65-2.64-17.05-8.31-11.95-15.39-24.08-30.64-36.15-45.94-1.69-2.14-3.41-4.25-5.58-7-6.4,20.37-12.49,39.71-18.57,59q-18.94,60.19-37.85,120.4c-1.7,5.42-4.57,9.6-10.1,11.48-8.43,2.88-15.88-.77-20.11-9.95q-19.32-41.91-38.48-83.9c-1.36-3-2.91-4.18-6.3-4.09-10.16.25-20.33-.07-30.49.14-7.68.15-12.89-3.11-16.48-9.84-7.66-14.4-15.55-28.66-23.37-43-8.69-15.91-17.39-31.8-26.38-48.25-1.15,2.08-2.05,3.63-2.89,5.22L159.06,284.12c-5.45,10.29-12.4,12.9-23.13,8.56-11.56-4.68-23.09-9.45-34.65-14.13a15.45,15.45,0,0,0-5.21-1.48C86.59,276.93,77.11,277,67.31,277Z"/></g></g></svg>