<svg xmlns="http://www.w3.org/2000/svg" viewBox="0 0 560.09 600"><title>ind</title><g id="Calque_2" data-name="Calque 2"><g id="Calque_1-2" data-name="Calque 1"><path d="M0,125c3.6-7.07,9.41-11.9,16.12-15.79,24.09-14,49.4-15.26,75.69-7.48,13.37,4,26.7,8.4,40.35,11,22.32,4.25,45.11,4.72,67.71,3.46,35.4-2,70.76-4.78,106.07-8,41.37-3.74,82.74-6.69,124.22-3.07,40.37,3.52,80.24,9.95,118.48,24.14a39.93,39.93,0,0,1,7.63,3.65c1.53,1,2.56,2.75,3.82,4.17-1.81.92-3.57,2.49-5.46,2.66-6.62.62-13.29,1-19.94,1-22,.13-44-.16-66,.14-60.51.84-120,9.31-178.92,23.06-45.81,10.68-92.42,13.8-139.47,10.4-36.31-2.62-72.08-8.24-107-18.5-10.3-3-20.23-7.5-30.07-11.88A25.21,25.21,0,0,1,0,131Z"/><path d="M279,0c5.2,1,10.46,1.73,15.58,3,24,6.11,45.65,16.74,62.27,35.61,4,4.59,6.69,10.58,9.19,16.28s.12,11-4.92,13.75c-7.55,4-15.44,8.25-23.7,10-28.91,6.3-58,12.09-87.12,17.14-22.6,3.91-45.4,6.87-68.21,9.35-10,1.09-20.24-.07-30.37-.24a14,14,0,0,1-2.47-.39c-13.6-2.75-17.59-11.35-8.87-22.19,8.5-10.58,18.3-20.22,28.29-29.45,15.16-14,30.88-27.43,49-37.72C230.31,8,243.66,2.64,258.27.83A6.53,6.53,0,0,0,260,0Z"/><path d="M238,600c-2.54-.66-5.08-1.36-7.63-2-9.64-2.37-18.66-5.85-26.22-12.66-6.28-5.66-14.27-7.54-22.34-9.18-13-2.63-15.73-6.09-15.92-19.23-.27-19.52,0-39.06,5.35-58a69.78,69.78,0,0,1,8.84-18.77c3.87-5.9,9.83-8.64,17.39-6.33,16.52,5.05,33.42,5.21,50.44,3.46,4.39-.45,7.11,2,8.13,5.87,1.92,7.22,3.72,14.5,4.92,21.86,3.77,23.08,10.71,44.91,23.73,64.6,5.55,8.41,4.22,14.05-4,20.05-7,5.13-15,7.78-23.44,9.27-1.45.25-2.86.68-4.28,1Z"/><path d="M139.68,305.92c.51-25.12,2.28-46.68,7.42-67.8,3.94-16.18,11.16-30.74,26.9-38.32,8.1-3.91,17.24-6.2,26.17-7.71,25.9-4.38,51.92-8.14,77.94-11.8a86.2,86.2,0,0,1,17.45-.15c7.94.52,11.5,4.12,11.64,12.1A38.8,38.8,0,0,1,305.27,206c-4,10.9-8,21.92-13.43,32.16-14.26,27.05-28.86,53.95-44.12,80.45-8.14,14.15-18.07,27.34-31.67,36.9-10.93,7.68-22.79,13.6-36.22,15.92-11.2,1.93-20-1.91-26.82-10.52-7.86-9.9-10.37-21.84-11.88-33.95C140.13,318.83,140,310.65,139.68,305.92Z"/><path d="M319.75,390.61c-15.62-2.15-31.26-4.2-46.85-6.57-2.87-.43-5.67-1.94-8.26-3.39-8-4.51-10.55-11.71-6.33-19.84A121.66,121.66,0,0,1,269.07,344c25.27-33.66,39.09-72.35,49.84-112.43,2.76-10.27,5.09-20.68,8.19-30.84,3.47-11.36,10.14-20.09,22.07-23.92,11.1-3.56,19.54-.53,24.07,10.33a132.73,132.73,0,0,1,7.56,25.25c7.89,40,19.16,78.83,36.94,115.64A93.07,93.07,0,0,1,423.27,343c2.72,9.53-.5,17.39-7.86,23.61-10.05,8.48-22.51,11.28-34.84,14-20,4.44-40,8.74-60.68,8.64Z"/><path d="M446.26,470.89c-47-4-91-6.09-135.2-5.76-33.41.25-66.86-2.74-100.28-4.64-20.28-1.16-40.55-2.61-60.74-4.74-7.81-.83-15.63-3.26-23-6.12-8.7-3.38-14.34-10.06-13.75-20,.64-10.91,4.83-20.09,15.67-24.68,9.32-3.95,19.27-3.93,29-3.25,16.26,1.12,32.49,2.93,48.71,4.7,35.15,3.84,70.4,6.51,105.7,3.34,20.7-1.86,41.23-5.53,61.85-8.26,11-1.47,22.09-3.13,33.19-3.92,25.6-1.8,45.09,9.57,59.76,29.69a79.18,79.18,0,0,1,10.91,20.54c4.31,12.53-1.68,20.93-14.89,22.22C456.64,470.69,450,470.72,446.26,470.89Z"/><path d="M391.42,593.18c-10.8,0-21.6.25-32.39-.1-5.83-.19-9.07-3.25-9-9.15.08-6.56.6-13.4,2.62-19.57,3.36-10.21,8.05-20,12.25-29.92A4.65,4.65,0,0,1,367,532a53.68,53.68,0,0,1,9.35-3c6.27-1.21,12.61-2.65,18.95-2.86a198.1,198.1,0,0,1,27.35.78c19.29,2,27.46,14.23,30,30.79,1.23,8,.48,16.23.79,24.36.11,3-1.47,3.91-4.05,4.53-9.53,2.29-18.89,5.71-28.55,6.91s-19.59.26-29.41.26Z"/><path d="M378,521.05c-11.08-2-22.5-2.88-33.17-6.18-20.68-6.38-19.87-23.86-9.29-36.45,2.13-2.53,6.57-4.3,10-4.34,7.45-.09,14.89,1.42,22.36,1.8,11.64.58,23.3,1,34.94,1.05a35.08,35.08,0,0,1,27.32,12.31c7.36,8.3,6.23,16.83-3.95,20.91s-21.23,6.28-32,8.67c-5.13,1.14-10.6.8-15.92,1.13C378.11,520.32,378,520.68,378,521.05Z"/></g></g></svg>