<?xml version="1.0" encoding="utf-8"?>
<!-- Generator: Adobe Illustrator 22.1.0, SVG Export Plug-In . SVG Version: 6.00 Build 0)  -->
<svg version="1.1" id="Calque_1" xmlns="http://www.w3.org/2000/svg" xmlns:xlink="http://www.w3.org/1999/xlink" x="0px" y="0px"
	 viewBox="0 0 560.1 600" style="enable-background:new 0 0 560.1 600;" xml:space="preserve">
<style type="text/css">
	.st0{fill:#BAA898;}
</style>
<title>ind</title>
<g id="Calque_2_1_">
	<g id="Calque_1-2">
		<path class="st0" d="M0,125c3.6-7.1,9.4-11.9,16.1-15.8c24.1-14,49.4-15.3,75.7-7.5c13.4,4,26.7,8.4,40.3,11
			c22.3,4.2,45.1,4.7,67.7,3.5c35.4-2,70.8-4.8,106.1-8c41.4-3.7,82.7-6.7,124.2-3.1c40.4,3.5,80.2,9.9,118.5,24.1
			c2.7,0.9,5.2,2.2,7.6,3.6c1.5,1,2.6,2.8,3.8,4.2c-1.8,0.9-3.6,2.5-5.5,2.7c-6.6,0.6-13.3,1-19.9,1c-22,0.1-44-0.2-66,0.1
			c-60.5,0.8-120,9.3-178.9,23.1c-45.8,10.7-92.4,13.8-139.5,10.4c-36.3-2.6-72.1-8.2-107-18.5c-10.3-3-20.2-7.5-30.1-11.9
			c-5.9-2.5-10.6-7.1-13.2-13V125z"/>
		<path class="st0" d="M279,0c5.2,1,10.5,1.7,15.6,3c24,6.1,45.6,16.7,62.3,35.6c4,4.6,6.7,10.6,9.2,16.3s0.1,11-4.9,13.8
			c-7.5,4-15.4,8.2-23.7,10c-28.9,6.3-58,12.1-87.1,17.1c-22.6,3.9-45.4,6.9-68.2,9.3c-10,1.1-20.2-0.1-30.4-0.2
			c-0.8-0.1-1.7-0.2-2.5-0.4c-13.6-2.8-17.6-11.3-8.9-22.2c8.5-10.6,18.3-20.2,28.3-29.5c15.2-14,30.9-27.4,49-37.7
			c12.6-7.1,26-12.5,40.6-14.3c0.6-0.2,1.2-0.5,1.7-0.8H279z"/>
		<path class="st0" d="M238,600c-2.5-0.7-5.1-1.4-7.6-2c-9.6-2.4-18.7-5.8-26.2-12.7c-6.3-5.7-14.3-7.5-22.3-9.2
			c-13-2.6-15.7-6.1-15.9-19.2c-0.3-19.5,0-39.1,5.4-58c2-6.7,5-13,8.8-18.8c3.9-5.9,9.8-8.6,17.4-6.3c16.5,5,33.4,5.2,50.4,3.5
			c4.4-0.5,7.1,2,8.1,5.9c1.9,7.2,3.7,14.5,4.9,21.9c3.8,23.1,10.7,44.9,23.7,64.6c5.5,8.4,4.2,14-4,20c-7,5.1-15,7.8-23.4,9.3
			c-1.4,0.2-2.9,0.7-4.3,1L238,600z"/>
		<path class="st0" d="M139.7,305.9c0.5-25.1,2.3-46.7,7.4-67.8c3.9-16.2,11.2-30.7,26.9-38.3c8.1-3.9,17.2-6.2,26.2-7.7
			c25.9-4.4,51.9-8.1,77.9-11.8c5.8-0.6,11.6-0.7,17.5-0.1c7.9,0.5,11.5,4.1,11.6,12.1c0.2,4.7-0.5,9.3-1.9,13.8
			c-4,10.9-8,21.9-13.4,32.2c-14.3,27-28.9,54-44.1,80.4c-8.1,14.1-18.1,27.3-31.7,36.9c-10.9,7.7-22.8,13.6-36.2,15.9
			c-11.2,1.9-20-1.9-26.8-10.5c-7.9-9.9-10.4-21.8-11.9-34C140.1,318.8,140,310.6,139.7,305.9z"/>
		<path class="st0" d="M319.8,390.6c-15.6-2.1-31.3-4.2-46.9-6.6c-2.9-0.4-5.7-1.9-8.3-3.4c-8-4.5-10.6-11.7-6.3-19.8
			c3.1-5.9,6.7-11.5,10.8-16.8c25.3-33.7,39.1-72.4,49.8-112.4c2.8-10.3,5.1-20.7,8.2-30.8c3.5-11.4,10.1-20.1,22.1-23.9
			c11.1-3.6,19.5-0.5,24.1,10.3c3.4,8.1,5.9,16.6,7.6,25.2c7.9,40,19.2,78.8,36.9,115.6c2.3,4.8,4.1,9.8,5.5,15
			c2.7,9.5-0.5,17.4-7.9,23.6c-10,8.5-22.5,11.3-34.8,14c-20,4.4-40,8.7-60.7,8.6L319.8,390.6z"/>
		<path class="st0" d="M446.3,470.9c-47-4-91-6.1-135.2-5.8c-33.4,0.2-66.9-2.7-100.3-4.6c-20.3-1.2-40.6-2.6-60.7-4.7
			c-7.8-0.8-15.6-3.3-23-6.1c-8.7-3.4-14.3-10.1-13.8-20c0.6-10.9,4.8-20.1,15.7-24.7c9.3-4,19.3-3.9,29-3.2
			c16.3,1.1,32.5,2.9,48.7,4.7c35.1,3.8,70.4,6.5,105.7,3.3c20.7-1.9,41.2-5.5,61.9-8.3c11-1.5,22.1-3.1,33.2-3.9
			c25.6-1.8,45.1,9.6,59.8,29.7c4.6,6.3,8.3,13.2,10.9,20.5c4.3,12.5-1.7,20.9-14.9,22.2C456.6,470.7,450,470.7,446.3,470.9z"/>
		<path class="st0" d="M391.4,593.2c-10.8,0-21.6,0.2-32.4-0.1c-5.8-0.2-9.1-3.2-9-9.2c0.1-6.6,0.6-13.4,2.6-19.6
			c3.4-10.2,8-20,12.2-29.9c0.4-1,1.1-1.9,2.1-2.4c3-1.3,6.1-2.3,9.4-3c6.3-1.2,12.6-2.7,19-2.9c9.1-0.4,18.3-0.1,27.4,0.8
			c19.3,2,27.5,14.2,30,30.8c1.2,8,0.5,16.2,0.8,24.4c0.1,3-1.5,3.9-4,4.5c-9.5,2.3-18.9,5.7-28.5,6.9s-19.6,0.3-29.4,0.3
			L391.4,593.2z"/>
		<path class="st0" d="M378,521c-11.1-2-22.5-2.9-33.2-6.2c-20.7-6.4-19.9-23.9-9.3-36.5c2.1-2.5,6.6-4.3,10-4.3
			c7.5-0.1,14.9,1.4,22.4,1.8c11.6,0.6,23.3,1,34.9,1c10.5-0.2,20.5,4.3,27.3,12.3c7.4,8.3,6.2,16.8-4,20.9s-21.2,6.3-32,8.7
			c-5.1,1.1-10.6,0.8-15.9,1.1C378.1,520.3,378,520.7,378,521z"/>
	</g>
</g>
</svg>
