<?xml version="1.0" encoding="utf-8"?>
<!-- Generator: Adobe Illustrator 22.1.0, SVG Export Plug-In . SVG Version: 6.00 Build 0)  -->
<svg version="1.1" id="Calque_1" xmlns="http://www.w3.org/2000/svg" xmlns:xlink="http://www.w3.org/1999/xlink" x="0px" y="0px"
	 viewBox="0 0 600 600" style="enable-background:new 0 0 600 600;" xml:space="preserve">
<style type="text/css">
	.st0{fill:#FDA132;}
</style>
<title>inter</title>
<g id="Calque_2_1_">
	<g id="Calque_1-2">
		<path class="st0" d="M285,0h30c1.8,0.4,3.6,0.7,5.4,0.9c23.8,1.3,47.3,5.7,70,13.1c70.4,22.8,125.3,65.6,164.7,128.3
			c22.4,35.6,36.8,75.7,42.1,117.5c1,7.7,1.9,15.5,2.8,23.2v34c-0.3,1.6-0.7,3.2-0.9,4.9c-1.5,11.7-2.3,23.6-4.7,35.1
			c-16.3,80.3-58.1,143.9-125.4,190.7c-38.8,27-81.9,43.3-128.8,49.4c-8.4,1.1-16.8,1.9-25.2,2.9h-30c-1.8-0.4-3.6-0.7-5.4-0.9
			c-34.2-1.9-67.7-10-99-23.9C122.7,549.8,77.1,510.1,43.8,456c-21.8-35.2-35.8-74.7-41-115.8c-1-7.7-1.9-15.5-2.8-23.2v-34
			c0.3-1.6,0.7-3.2,0.9-4.9c1.8-13.1,2.6-26.6,5.5-39.5C23.5,160.3,65.1,98,130.9,52.3c38.3-26.7,82.5-43.6,128.8-49.4
			C268.1,1.8,276.6,1,285,0z M412,319.2H188.3c-1.6,28.8,10.6,103,21.4,130.6h180.9C404,407.3,410.3,363.9,412,319.2z M188,280.8
			h224c-1.7-44.6-8-88.1-21.4-130.6H209.4C196,192.7,189.7,236.1,188,280.8z M449.5,319.1C448,363.5,442,407,429.8,450h5.5
			c25,0,50-0.1,75,0.1c3.1,0.3,6.1-1.3,7.7-4.1c18.9-28.1,32.1-59.7,38.9-92.9c2.3-11.1,3.5-22.5,5.2-34.1L449.5,319.1z M38.8,319.1
			c0,1.1-0.1,1.9,0,2.7c3.7,45.8,18.7,87.6,44.4,125.5c1,1.5,3.8,2.5,5.8,2.5c25.7,0.2,51.3,0.1,77,0.1c1.3,0,2.5-0.2,4.2-0.3
			c-12.2-42.9-18.2-86.4-19.7-130.5L38.8,319.1z M561.2,280.9c0-1,0-1.9,0-2.6c-3.5-45-18.8-88.3-44.4-125.6c-1-1.5-3.8-2.6-5.7-2.6
			c-25.6-0.2-51.3-0.1-77-0.1c-1.3,0-2.6,0.1-4.3,0.3c12.2,42.9,18.2,86.4,19.7,130.6H561.2z M38.6,280.9h111.9
			c1.5-44.3,7.5-87.8,19.8-130.9h-4.9c-25.3,0-50.6,0.1-75.9-0.1c-3.5,0-5.6,1.1-7.2,4c-8.6,16.3-18.2,32.1-25.6,49
			C45.9,227.4,40.4,253.5,38.6,280.9L38.6,280.9z M375.4,112.2c0-0.6-0.1-1.2-0.3-1.7C365.2,89,353,69,335.3,53
			c-22.1-20-45.2-20.7-68.3-1.8c-15.8,12.8-26.7,29.5-36.2,47.2c-2.3,4.3-4.4,8.8-6.9,13.8L375.4,112.2z M224.7,487.8
			c-0.1,0.4-0.1,0.9,0,1.3c10,21.8,22.2,42.1,40.4,58.2c22.3,19.7,45,20.3,67.9,1.4c19.4-16,31.9-37.2,42.3-59.8
			c0.1-0.2-0.1-0.6-0.1-1.1H224.7z M482.9,112.1c-28.1-27.2-61.8-47.8-98.7-60.5c13.6,19,23.5,38.4,32,58.5c0.5,1.3,3.4,2.3,5.2,2.3
			c18.7,0.2,37.3,0.1,56,0.1C478.8,112.5,480.2,112.3,482.9,112.1z M118.5,487.5l-0.4,1.3c27.6,26.6,60.7,46.8,96.9,59.3
			c-0.2-0.7-0.4-1.3-0.7-1.9c-12.1-17.4-22.2-36.1-30-55.7c-1.2-2.9-3-3.1-5.4-3c-11.2,0-22.3,0-33.5,0L118.5,487.5z M215.8,51.7
			c-37.8,13.3-69.9,32.9-97.8,59.7c0.7,0.6,0.9,0.9,1.1,0.9c20.5,0.1,41,0.2,61.5,0.1c1.5-0.3,2.8-1.3,3.5-2.6
			C192.4,89.7,202.2,70.5,215.8,51.7z M482.4,488.3c-0.7-0.3-1.4-0.5-2.1-0.7c-20.2,0-40.3-0.1-60.5,0c-1.6,0.2-2.9,1.1-3.7,2.4
			c-8.4,20.1-18.3,39.5-31.9,58.4C421,535.7,454.5,515.2,482.4,488.3z"/>
	</g>
</g>
</svg>
