<svg xmlns="http://www.w3.org/2000/svg" viewBox="0 0 600 600"><title>inter</title><g id="Calque_2" data-name="Calque 2"><g id="Calque_1-2" data-name="Calque 1"><path d="M285,0h30a47.39,47.39,0,0,0,5.38.86,272.27,272.27,0,0,1,70,13.11Q496,48.2,555.07,142.29a289,289,0,0,1,42.1,117.48c1,7.74,1.89,15.49,2.83,23.23v34c-.31,1.62-.7,3.23-.91,4.86-1.53,11.71-2.31,23.58-4.65,35.13Q570,477.42,469.05,547.71c-38.77,26.95-81.89,43.33-128.8,49.43-8.4,1.09-16.83,1.91-25.25,2.86H285a49.78,49.78,0,0,0-5.38-.87,284.3,284.3,0,0,1-99-23.89Q93.71,537.09,43.85,456a290.23,290.23,0,0,1-41-115.8C1.83,332.5.94,324.75,0,317V283c.31-1.62.69-3.22.91-4.85C2.7,265,3.56,251.57,6.4,238.61,23.54,160.31,65.06,98,130.94,52.29A288.32,288.32,0,0,1,259.75,2.87C268.15,1.77,276.58,1,285,0ZM412,319.22H188.3c-1.62,28.75,10.55,103,21.37,130.57H390.6C404,407.32,410.33,363.86,412,319.22ZM188,280.78H412c-1.71-44.64-8-88.11-21.43-130.57H209.4C196,192.68,189.7,236.15,188,280.78ZM449.5,319.07C448,363.45,442,407,429.77,450h5.54c25,0,50-.08,75,.09a8,8,0,0,0,7.66-4.07,260.12,260.12,0,0,0,38.86-92.86c2.28-11.14,3.46-22.51,5.19-34.09Zm-410.69.08c0,1.11-.06,1.92,0,2.71,3.69,45.78,18.65,87.59,44.43,125.52,1,1.49,3.8,2.5,5.77,2.51,25.65.17,51.3.11,77,.1,1.26,0,2.53-.17,4.21-.3-12.25-42.88-18.18-86.4-19.68-130.54ZM561.23,280.9c0-1,0-1.85,0-2.64A256.64,256.64,0,0,0,516.81,152.7c-1-1.5-3.77-2.57-5.73-2.59-25.65-.17-51.3-.11-77-.1-1.28,0-2.57.15-4.29.26,12.24,42.87,18.17,86.4,19.69,130.63Zm-522.64,0h111.9C152,236.62,158,193.08,170.24,150h-4.93c-25.31,0-50.63.08-75.94-.09-3.48,0-5.62,1.05-7.17,4C73.61,170.2,64,186,56.61,202.87,45.89,227.4,40.42,253.46,38.59,280.89ZM375.36,112.2a7,7,0,0,0-.26-1.74C365.19,89,353,69,335.32,53,313.17,33,290.09,32.35,267,51.17,251.24,64,240.27,80.67,230.82,98.4c-2.33,4.35-4.44,8.82-6.93,13.8ZM224.71,487.84a4.19,4.19,0,0,0,0,1.29c10,21.81,22.24,42.14,40.39,58.19,22.29,19.72,45,20.32,67.93,1.43,19.43-16,31.91-37.21,42.27-59.77.11-.25-.06-.63-.13-1.14ZM482.87,112.08a266.27,266.27,0,0,0-98.7-60.52c13.57,19,23.46,38.4,32,58.51.55,1.31,3.4,2.3,5.2,2.32,18.66.17,37.32.11,56,.09C478.78,112.48,480.2,112.28,482.87,112.08ZM118.48,487.51l-.38,1.31A264.08,264.08,0,0,0,215,548.17a11.17,11.17,0,0,0-.69-1.91,277.83,277.83,0,0,1-30-55.73c-1.16-2.86-3-3.06-5.45-3-11.17.05-22.33,0-33.5,0ZM215.76,51.69c-37.83,13.25-69.9,32.92-97.82,59.68.68.56.91.92,1.14.92,20.48.08,41,.18,61.45.07a4.93,4.93,0,0,0,3.5-2.64C192.44,89.74,202.18,70.5,215.76,51.69Zm266.67,436.6a11.1,11.1,0,0,0-2.14-.7c-20.16,0-40.31-.1-60.46,0A4.93,4.93,0,0,0,416.1,490c-8.42,20.15-18.29,39.51-31.85,58.36A266.46,266.46,0,0,0,482.43,488.29Z"/></g></g></svg>