<svg width="70" height="70" viewBox="0 0 70 70" fill="none" xmlns="http://www.w3.org/2000/svg">
<rect width="70" height="70" rx="35" fill="#F15156"/>
<path d="M20 11.8H13V7.8C13 4.7 11.1 1.1 7.6 0.1C7 -0.1 6.3 2.98023e-08 5.8 0.4C5.3 0.8 5 1.3 5 2V7.5L0 13.9V29.4L1.9 30.4C3.8 31.3 5.9 31.8 8 31.8H18C20.2 31.8 22.1 30.2 22.5 27.9L24 15.9V15.8C24 13.6 22.2 11.8 20 11.8Z" transform="translate(42.9706 52.7705) rotate(-180)" fill="white"/>
<path d="M5 0H1C0.4 0 0 0.4 0 1V18C0 18.6 0.4 19 1 19H5C5.6 19 6 18.6 6 18V1C6 0.4 5.6 0 5 0Z" transform="translate(50.9706 39.9705) rotate(-180)" fill="white"/>
</svg>
