<svg xmlns="http://www.w3.org/2000/svg" viewBox="0 0 600 560"><title>Fichier 1</title><g id="Calque_2" data-name="Calque 2"><g id="Calque_1-2" data-name="Calque 1"><path d="M173,560c-3.37-.81-6.79-1.44-10.1-2.44-33-10-52.05-32.69-58.83-66-7.23-35.49-1.72-69.95,10-103.61,15.28-43.92,39.66-81.72,77.3-109.83,41.48-31,88.15-42,139.17-33.66,48,7.83,87,31.69,117,69.59,34.23,43.29,52.29,92.75,52.31,148.24,0,17.28-2.91,34.23-10.15,50.07-15.85,34.69-52.2,56.78-96.71,42.08-16.59-5.47-31.38-14.42-46.28-23.25-11.3-6.7-22.73-13.18-34.14-19.7-8.39-4.79-16.82-4.73-25.11.22Q266,524.54,244.63,537.46c-15.74,9.53-32,17.79-50.36,21-2.76.49-5.51,1-8.27,1.52ZM292.15,278.88C259.29,278,222,295.25,191.91,328.23c-29.67,32.55-47.14,71-52.6,114.78-2.1,16.8-1.63,33.57,3.7,49.91,6,18.47,25.86,36.25,51.23,27,11.48-4.16,22.47-9.94,33.17-15.9,14.09-7.85,27.38-17.14,41.6-24.75A86.17,86.17,0,0,1,293.4,471c13.67-2.58,26.46,2.05,38.29,8.42,14.05,7.57,27.65,16,41.38,24.16,11.47,6.83,23.08,13.3,36.2,16.46,20.13,4.85,38.22-3.65,45.91-22.92a92.78,92.78,0,0,0,6.58-28.48c2.77-48.16-12.84-90.84-41.58-128.8C391.27,301.66,352.76,280.88,292.15,278.88Z"/><path d="M212,0c3,.83,6,1.57,9,2.5,22,6.8,37.19,21.86,48.08,41.24C290.83,82.4,296,123.05,281,165.36c-5.72,16.13-15.6,29.61-30.56,38.27-21.87,12.67-43.5,10.23-63.89-3.72-20.8-14.23-33.08-34.8-40.86-58.21-10.38-31.22-11.77-62.69-.47-94C151.66,29.76,162.41,15,179.76,6.08,185.14,3.33,191.23,2,197,0Zm40.09,120.66C251.94,102,248.5,85,240.63,69.06c-6.22-12.56-14.07-23.84-27.45-29.89-7.17-3.24-14-2.27-20.16,2.48-6.43,4.94-10.37,11.7-12.94,19.19-8.77,25.6-6.37,50.81,3.44,75.55,5.1,12.86,12.19,24.5,23.9,32.48,13.4,9.15,25.25,6.52,34-7.18C249.51,148.87,251.74,134.54,252.09,120.66Z"/><path d="M403,0c9.66,2.58,18.9,6,26.89,12.31,15.61,12.37,24.62,29,28.69,47.87,9.76,45.26,1.55,87-27.53,123.69-11.6,14.6-26.59,24.77-45.62,27.16-21.89,2.76-39.37-5.83-53.1-22.47-13.07-15.83-19.05-34.64-20.86-54.68-3.18-35.26,4-68.23,24.26-97.73C348.3,17.82,364.58,4.49,387.25.61c.28,0,.5-.4.75-.61Zm22.34,91c-.35-3.73-.54-9.24-1.41-14.64-1.91-11.81-5.51-23-14-31.95-7-7.41-14.64-8.86-24-4.78-7.74,3.37-13.52,9.18-18.28,15.82-15.83,22.06-21.26,47-19.25,73.71,1,13.6,4.67,26.55,13.86,37.25,6.81,7.93,16.05,10.59,25,5.35a63,63,0,0,0,17.9-15.4C419.58,137.76,424.6,115.87,425.34,91Z"/><path d="M600,220c-2.32,9-3.83,18.25-7.11,26.85-10.68,28-28.72,49.77-56.2,62.66-16.56,7.77-33.93,9.95-51.33,2.93C464.88,304.2,453.71,288,450,266.86c-5.45-31.07,4.62-58.24,23.26-82.52,13.94-18.14,31.56-31.5,54.47-36.42,35.45-7.6,66,13.91,71.2,49.84A41.75,41.75,0,0,0,600,202ZM486,251.12c0,1.16,0,2.33,0,3.49.81,20.45,14.21,29.32,33.28,22,25.39-9.71,45.94-44.07,42.85-71.62-2-17.76-13.8-25.22-30.71-19.41C507,194,486.17,224,486,251.12Z"/><path d="M0,202c2.15-7.47,3.41-15.35,6.62-22.33,13-28.25,42.57-40.35,72.88-29.79,31.81,11.09,52.09,34.21,64.58,64.65,7.56,18.44,9.84,37.61,4.92,57.22-8.26,32.94-38,51-71.11,42.81C52.52,308.28,34,292.34,19.55,271.21A108.8,108.8,0,0,1,.75,221.8,7,7,0,0,0,0,220Zm114.36,49.59a67.38,67.38,0,0,0-7.25-28.37c-8.35-17.09-19.9-31.13-38.43-37.85-16.2-5.87-28.69,2-30.73,19.14-2.17,18.21,4,34.07,14.36,48.57C60.39,264.43,70.47,273.46,84,277.8,98.79,282.53,110,276,113.1,261,113.74,257.87,114,254.71,114.36,251.59Z"/></g></g></svg>