<?xml version="1.0" encoding="utf-8"?>
<!-- Generator: Adobe Illustrator 22.1.0, SVG Export Plug-In . SVG Version: 6.00 Build 0)  -->
<svg version="1.1" id="Calque_1" xmlns="http://www.w3.org/2000/svg" xmlns:xlink="http://www.w3.org/1999/xlink" x="0px" y="0px"
	 viewBox="0 0 531.7 600" style="enable-background:new 0 0 531.7 600;" xml:space="preserve">
<style type="text/css">
	.st0{fill:#B6C9F0;}
</style>
<title>social</title>
<g id="Calque_2_1_">
	<g id="Calque_1-2">
		<path class="st0" d="M0,266v-93c0.3-1.3,0.8-2.5,0.9-3.8c2.3-15.8,7.9-30.3,18-42.6c5.9-7.1,12.7-13.4,19.4-20.3
			c-0.1-0.3-0.2-0.5-0.3-0.7c-22.8-34.4-11-79.7,26-98.2C70.8,3.9,78.6,2.4,86,0h15c1.1,0.4,2.1,0.7,3.2,1
			c37.5,5.3,63.9,42.5,55.9,79.6c-2,9.2-6.4,17.9-9.5,26.5l25.2,27.2c27.8-14,58.6-21.2,89.8-20.9c31.8,0.1,62.3,7,90,20.9
			l26.2-28.3c-0.1-0.3-0.3-0.5-0.5-0.8c-21.6-32.3-11.5-76.9,22.3-95.7c7.8-4.3,16.9-6.4,25.4-9.4h15c0.9,0.4,1.9,0.7,2.8,0.9
			c48.9,7.2,73.8,60.8,47.8,102.8c-0.7,1.1-1.2,2.2-1.8,3.5c28.5,21.5,40.1,50.1,38.9,85c-0.8,22.5-0.2,45-0.2,67.5v6.4H465
			c0.3,1.4,0.5,2.2,0.6,3c6.2,25.7,8.3,51.6,4.5,77.8c-9.7,66.3-43.8,116.5-100.9,151c-7.3,4.4-12.3,8-9.6,17.3
			c0.7,2.5,0.1,5.3,0.2,8c0.1,25.7,0.1,51.3,0.2,77H172c-0.1-6.2-0.2-12.3-0.2-18.5c0.1-25.2,0.4-50.3,0.4-75.5
			c0-1.4-1.8-3.3-3.2-4.1c-25.7-13.9-47.8-32.1-65.7-55.3C67.4,400,53.6,347.4,61.9,289c1.1-7.5,2.8-15,4.3-23H0z M351.3,477.8
			c80.8-42.4,111.4-138.9,85.7-212h-93.3c-0.1-1.4-0.2-2.4-0.2-3.4c0-26.7-0.1-53.3,0.1-80c0.2-6.5,0.9-12.9,2.1-19.3
			c0.6-3.4-0.1-4.9-3.3-6.4c-41.6-19.4-84.5-22.4-128.5-9.5c-9.9,2.9-19.4,7.3-28.3,10.7c4.8,36.8,1.1,72.3,2.6,108.1h-6.4
			c-27.8,0-55.7,0.1-83.5-0.1c-3.5,0-5.2,0.8-5.8,4.4c-2,12-5.5,23.8-6.2,35.8c-3.6,55.9,14.8,103.7,54.6,143.2
			c11.6,11.5,24.8,21.1,39.3,28.6c6.9-15,17.4-26.9,30.2-36.6c-22.7-35.3-10.8-71,9.4-89.1c24.8-22.2,58.5-24.2,85.1-5.4
			c12.3,8.5,21.3,21,25.5,35.4c6.2,21.1,2.7,40.8-9.6,59C333.9,450.5,344.4,463.1,351.3,477.8z M161.6,239.6c0-21.1,0.8-41.6-0.2-62
			c-1-20.8-11.1-37.3-28.1-49.5c-3-2.1-5.2-2.2-8.5-0.5c-20.7,10.2-41.6,10.6-62.3-0.2c-2.8-1.4-4.7-1.4-7.2,0.3
			c-18.9,13.1-28.6,31.2-29.1,54c-0.4,18-0.1,36-0.1,54c0.1,1.3,0.2,2.6,0.4,3.8L161.6,239.6z M199,573.5h134.3
			c0-20.8,0.6-41.3-0.2-61.7s-10.7-36.7-27.1-48.9c-3.4-2.5-6.1-3-10.2-0.9c-20.6,10.1-41.4,10.1-61.8-0.6c-2.6-1.4-4.4-1.2-6.7,0.4
			c-15.4,10.4-26.4,24.7-27.8,43C197.6,527.3,199,550.2,199,573.5z M369.9,239.5h135.3c0-19.7,0.2-39-0.1-58.3
			c-0.4-22.2-10-39.6-27.8-52.7c-3.2-2.3-5.6-2.6-9.4-0.8c-20.8,10.3-41.6,10.3-62.4-0.3c-2-0.9-4.2-0.8-6.1,0.2
			c-15.2,9.7-24.4,23.7-28.3,41.2c-0.8,3.4-1.1,6.9-1.2,10.4C369.8,199.2,369.9,219.2,369.9,239.5L369.9,239.5z M437.4,109.1
			c22.9,0,41.5-18.5,41.5-41.4s-18.5-41.5-41.4-41.5c-22.9,0-41.5,18.5-41.5,41.4c0,0.1,0,0.2,0,0.3
			C396.1,90.7,414.6,109.2,437.4,109.1L437.4,109.1z M265.6,443.1c22.9,0.1,41.5-18.4,41.6-41.3c0.1-22.9-18.4-41.5-41.3-41.6
			c-22.7-0.2-41.7,18.8-41.7,41.6C224.3,424.6,242.8,443.1,265.6,443.1L265.6,443.1z M94,109.1c22.9,0,41.5-18.6,41.5-41.5
			c0-22.9-18.6-41.5-41.5-41.5c-22.9,0-41.5,18.6-41.5,41.5C52.5,90.6,71.1,109.1,94,109.1z"/>
	</g>
</g>
</svg>
